<svg xmlns="http://www.w3.org/2000/svg" viewBox="0 0 500 500"><g id="freepik--Shadow--inject-2"><ellipse id="freepik--path--inject-2" cx="245" cy="416.24" rx="193.89" ry="11.32" style="fill:#f5f5f5"></ellipse></g><g id="freepik--Character--inject-2"><path d="M206.74,137.47s2.33-8.28,15.75-5.22,2.74,13.3,2.74,13.3,9.19,6.08,6.35,18.37c-3.28,14.21,5.07,17.19,1,23.64S200.83,199,183,189c-10.73-6,4.23-23.49,2.06-31.54C181.84,145.46,190.78,133.63,206.74,137.47Z" style="fill:#263238"></path><path d="M204.59,337.16l10.64-52.82a13,13,0,0,1,12.16-10.12H329.68c5.59,0,9.21,4.53,8.08,10.12l-10.64,52.82A13,13,0,0,1,315,347.28H212.67C207.09,347.28,203.47,342.75,204.59,337.16Z" style="fill:#407BFF"></path><path d="M117.54,259.17a69.06,69.06,0,0,1-.6-7l1,0c.08,2.26.28,4.57.59,6.87Z" style="fill:#407BFF"></path><path d="M118.8,238.83l-1-.17a56.71,56.71,0,0,1,12-26.63l.77.63A55.87,55.87,0,0,0,118.8,238.83Z" style="fill:#407BFF"></path><path d="M176.92,195h18l27.94,137h-18c-37.84,0-74.77-30.68-82.48-68.51S139.08,195,176.92,195Z" style="fill:#407BFF"></path><ellipse cx="208.85" cy="263.53" rx="61.88" ry="75.85" transform="translate(-126.7 241.87) rotate(-47.91)" style="fill:#407BFF"></ellipse><ellipse cx="208.85" cy="263.53" rx="61.88" ry="75.85" transform="translate(-126.7 241.87) rotate(-47.91)" style="fill:#fff;opacity:0.2"></ellipse><path d="M302.48,316.79,309,284.34a13,13,0,0,1,12.15-10.12h10.25c5.59,0,9.21,4.53,8.09,10.12l-10.64,52.82a13,13,0,0,1-12.16,10.12H188V316.79Z" style="fill:#407BFF"></path><path d="M302.48,316.79,309,284.34a13,13,0,0,1,12.15-10.12h10.25c5.59,0,9.21,4.53,8.09,10.12l-10.64,52.82a13,13,0,0,1-12.16,10.12H188V316.79Z" style="fill:#fff;opacity:0.30000000000000004"></path><polygon points="177.25 415.87 183.74 415.87 199.51 347.28 187.76 347.28 177.25 415.87" style="fill:#263238"></polygon><polygon points="177.25 415.87 183.74 415.87 199.51 347.28 187.76 347.28 177.25 415.87" style="fill:#fff;opacity:0.6000000000000001"></polygon><polygon points="145.01 415.87 151.5 415.87 167.27 347.28 155.52 347.28 145.01 415.87" style="fill:#263238"></polygon><polygon points="145.01 415.87 151.5 415.87 167.27 347.28 155.52 347.28 145.01 415.87" style="fill:#fff;opacity:0.6000000000000001"></polygon><polygon points="279.21 415.87 272.72 415.87 256.95 347.28 268.7 347.28 279.21 415.87" style="fill:#263238"></polygon><polygon points="279.21 415.87 272.72 415.87 256.95 347.28 268.7 347.28 279.21 415.87" style="fill:#fff;opacity:0.6000000000000001"></polygon><polygon points="311.45 415.87 304.95 415.87 289.19 347.28 300.94 347.28 311.45 415.87" style="fill:#263238"></polygon><polygon points="311.45 415.87 304.95 415.87 289.19 347.28 300.94 347.28 311.45 415.87" style="fill:#fff;opacity:0.6000000000000001"></polygon><path d="M236.14,212.21c3.4,5.88,7,11.88,10.77,17.59,1.88,2.87,3.8,5.68,5.8,8.36a65.12,65.12,0,0,0,6.23,7.36c.08.08,0,0-.12-.09s-.24-.18-.36-.25a4.68,4.68,0,0,0-1.87-.66,5.49,5.49,0,0,0-.81,0,4.7,4.7,0,0,0-1.76.39,5.16,5.16,0,0,0-.7.37,4.43,4.43,0,0,0-1.38,1.34,2.71,2.71,0,0,0-.39.84c0,.06,0,0,0-.05a14.23,14.23,0,0,0,.24-1.84c.11-1.51.12-3.19.1-4.88,0-3.39-.18-6.87-.36-10.35l-1.16-21,5.88-.89c1.69,7,3.12,13.91,4.26,21,.55,3.54,1.08,7.09,1.42,10.76.17,1.84.31,3.68.33,5.7a19.94,19.94,0,0,1-.21,3.44,10.56,10.56,0,0,1-.27,1.24,7,7,0,0,1-.91,2.05,6.07,6.07,0,0,1-2.68,2.26,5.38,5.38,0,0,1-1,.32,5.5,5.5,0,0,1-1.07.14,6.48,6.48,0,0,1-1,0,6.34,6.34,0,0,1-2.48-.9c-.21-.14-.48-.33-.63-.45l-.36-.3a67.5,67.5,0,0,1-8-8.33c-2.37-2.86-4.56-5.79-6.64-8.78A196.17,196.17,0,0,1,225.63,218Z" style="fill:#ffc3bd"></path><path d="M230.64,201c8,1.35,14.5,25.32,14.31,24.81l-15.37,14.32s-9.48-14.28-8.14-21.43C222.84,211.29,224.34,200,230.64,201Z" style="fill:#407BFF"></path><path d="M230.64,201c8,1.35,14.5,25.32,14.31,24.81l-15.37,14.32s-9.48-14.28-8.14-21.43C222.84,211.29,224.34,200,230.64,201Z" style="opacity:0.4"></path><path d="M239.44,216.55c-.75,10.26-3,27.55-8.66,56.65l-48.31-1.43c1.27-17.84-.65-31.13-5-62.34a10.14,10.14,0,0,1,9-11.49c3.1-.32,6.63-.59,10.17-.65,8.15-.15,14.81-.22,21.94.65,2.35.29,4.79.66,7.11,1.05A16.58,16.58,0,0,1,239.44,216.55Z" style="fill:#407BFF"></path><path d="M239.44,216.55c-.75,10.26-3,27.55-8.66,56.65l-48.31-1.43c1.27-17.84-.65-31.13-5-62.34a10.14,10.14,0,0,1,9-11.49c3.1-.32,6.63-.59,10.17-.65,8.15-.15,14.81-.22,21.94.65,2.35.29,4.79.66,7.11,1.05A16.58,16.58,0,0,1,239.44,216.55Z" style="opacity:0.30000000000000004"></path><path d="M199.55,172.65c1.18,7.1,2.17,20.07-2.91,24.64,0,0,12.4,6.49,20.53,17.81,8.69-6.88,1.41-17.16,1.41-17.16-7.81-2.11-7.44-7.95-5.9-13.39Z" style="fill:#ffc3bd"></path><path d="M204.9,177.51l7.77,7a22.45,22.45,0,0,0-.79,3.88c-3-.53-7-3.95-7.25-7.11A10.58,10.58,0,0,1,204.9,177.51Z" style="opacity:0.2"></path><path d="M191.67,159.37c2.12,11.62,2.77,16.58,9.41,21.88,10,8,23.78,2.82,25.17-9.2,1.25-10.81-2.43-28-14.44-31.28A16.11,16.11,0,0,0,191.67,159.37Z" style="fill:#ffc3bd"></path><path d="M207.56,139.38c15.94,6.46-.1,11.93-5.9,18.1-5.14,5.48-.33,14.19-8.95,8.05-4.11-2.93-3.94-18.4-1.64-21.29S202.81,137.45,207.56,139.38Z" style="fill:#263238"></path><path d="M211.64,161.14c.12,1,.71,1.67,1.34,1.59s1-.9.92-1.86-.71-1.66-1.34-1.59S211.53,160.19,211.64,161.14Z" style="fill:#263238"></path><path d="M222.37,159.58c.11,1,.71,1.67,1.33,1.59s1-.9.92-1.86-.71-1.66-1.33-1.59S222.25,158.63,222.37,159.58Z" style="fill:#263238"></path><path d="M223,157.81l2.21-.94S224.27,158.8,223,157.81Z" style="fill:#263238"></path><path d="M218.37,161.06a25.87,25.87,0,0,0,4.12,5.68c-1.11,1.32-3.32,1-3.32,1Z" style="fill:#ed847e"></path><path d="M214.42,172.14a10,10,0,0,0,1.42-.07.28.28,0,0,0,.25-.31.31.31,0,0,0-.32-.25,7.56,7.56,0,0,1-6.51-2.21.28.28,0,0,0-.43.36A7.89,7.89,0,0,0,214.42,172.14Z" style="fill:#263238"></path><path d="M189.15,170a9.25,9.25,0,0,0,5.47,4.48c3.12.91,4.72-1.87,3.89-4.83-.75-2.67-3.28-6.35-6.42-6S187.75,167.32,189.15,170Z" style="fill:#ffc3bd"></path><path d="M206.89,158.6a.56.56,0,0,0,.54-.37c.9-2.45,4.13-3.36,4.16-3.37a.57.57,0,0,0,.4-.69.55.55,0,0,0-.69-.39c-.16,0-3.84,1.07-4.92,4.06a.55.55,0,0,0,.51.76Z" style="fill:#263238"></path><path d="M224.88,153.62a.54.54,0,0,0,.5-.26.57.57,0,0,0-.17-.78,5.57,5.57,0,0,0-5.11-.59.55.55,0,0,0-.28.74.57.57,0,0,0,.74.29h0a4.44,4.44,0,0,1,4,.51A.51.51,0,0,0,224.88,153.62Z" style="fill:#263238"></path><polygon points="236.19 403.67 247.1 407.78 259.51 382.39 248.61 378.28 236.19 403.67" style="fill:#ffc3bd"></polygon><path d="M250.18,400.79l-12-5.9a.91.91,0,0,0-1.2.31l-5.38,8a2,2,0,0,0,.57,2.82c3.18,2.37,5.72,2.54,11,5.13,3.25,1.6,9.84,5.84,14.71,6.95s6.15-3.66,4.22-4.56c-8.68-4-8.75-7.41-10.45-11.18A3.11,3.11,0,0,0,250.18,400.79Z" style="fill:#263238"></path><g style="opacity:0.2"><polygon points="259.51 382.4 253.11 395.49 242.2 391.37 248.6 378.28 259.51 382.4"></polygon></g><polygon points="315.9 383.27 326.19 377.79 315.3 351.71 306.77 366.2 315.9 383.27" style="fill:#ffc3bd"></polygon><path d="M325.49,373.12l-13.26,1.66a.91.91,0,0,0-.83.92l0,10.66a2,2,0,0,0,2.19,1.86c4.62-.66,6.81-1.21,12.64-1.94,3.59-.45,12.78-1.29,17.73-1.91s4.53-5.54,2.4-5.73c-9.54-.82-15.28-2.83-18.77-5.05A3.15,3.15,0,0,0,325.49,373.12Z" style="fill:#263238"></path><g style="opacity:0.2"><polygon points="315.3 351.72 320.91 365.16 310.63 370.64 306.77 366.21 315.3 351.72"></polygon></g><path d="M212.29,159.37l2.21-.93S213.54,160.36,212.29,159.37Z" style="fill:#263238"></path><path d="M221.43,282.54s67.62-.37,65.51,22.28c-3.49,37.45-30,89-30,89l-15.41-5.33s16.34-34.65,15.59-71.73H207.52c-18.92,0-27.1-20.78-8.68-45C210.1,271.77,221.43,282.54,221.43,282.54Z"></path><path d="M181.83,268.91l-1.36,4.29c-.18.33.2.68.76.7L231,275.38c.44,0,.8-.19.84-.47l.56-4.31c0-.3-.33-.56-.8-.58l-48.92-1.45A.9.9,0,0,0,181.83,268.91Z" style="fill:#fff"></path><path d="M188.24,274.57l-1.31,0c-.26,0-.46-.15-.44-.32l.79-5.6c0-.16.25-.29.51-.28l1.31,0c.26,0,.46.15.43.31l-.78,5.6C188.73,274.45,188.5,274.58,188.24,274.57Z" style="fill:#263238"></path><path d="M227.25,275.74l-1.31,0c-.26,0-.45-.15-.43-.32l.78-5.6c0-.16.26-.29.52-.28l1.31,0c.26,0,.45.15.43.31l-.78,5.6C227.75,275.62,227.52,275.74,227.25,275.74Z" style="fill:#263238"></path><path d="M207.75,275.15l-1.31,0c-.27,0-.46-.15-.44-.32l.78-5.6c0-.16.26-.29.52-.28l1.31,0c.26,0,.46.15.43.31l-.78,5.6C208.24,275,208,275.16,207.75,275.15Z" style="fill:#263238"></path><path d="M213.93,272.36s83.79-17.84,87.42,3.47c6.32,37.08,19.73,84.55,19.73,84.55l-13.47,9.17s-21-44.16-33.09-79.2C260,295,217.79,316.79,200.91,316.79c-18.93,0-26.1-16.92-17.82-44.75C194.35,272,213.93,272.36,213.93,272.36Z" style="fill:#263238"></path><path d="M286.94,304.82a125,125,0,0,1-2,13.06c-3.72-9.18-7.36-18.65-10.44-27.53C282.29,293.62,287.55,298.25,286.94,304.82Z"></path><path d="M127.49,284.34l10.64,52.82a13,13,0,0,0,12.16,10.12h36.55c5.58,0,9.2-4.53,8.08-10.12l-10.64-52.82a13,13,0,0,0-12.16-10.12H135.57C130,274.22,126.37,278.75,127.49,284.34Z" style="fill:#407BFF"></path><path d="M204.18,337.16l-10.63-52.82a13,13,0,0,0-12.16-10.12H171.14c-5.59,0-9.21,4.53-8.08,10.12l10.64,52.82a13,13,0,0,0,12.15,10.12H196.1C201.69,347.28,205.31,342.75,204.18,337.16Z" style="fill:#407BFF"></path><path d="M204.18,337.16l-10.63-52.82a13,13,0,0,0-12.16-10.12H171.14c-5.59,0-9.21,4.53-8.08,10.12l10.64,52.82a13,13,0,0,0,12.15,10.12H196.1C201.69,347.28,205.31,342.75,204.18,337.16Z" style="fill:#fff;opacity:0.30000000000000004"></path><path d="M188,216.41c-.6,3.12-1.24,6.47-1.73,9.72s-1,6.55-1.32,9.81-.59,6.51-.67,9.68a47.17,47.17,0,0,0,.57,9l.09.47a1.12,1.12,0,0,0-.08-.18c-.06-.08-.07-.06,0,0a4.38,4.38,0,0,0,.8.87A18.38,18.38,0,0,0,189,258a69.43,69.43,0,0,0,8.75,3.81c3.09,1.16,6.27,2.2,9.48,3.2s6.48,1.95,9.69,2.87l-1,5.86a132.37,132.37,0,0,1-20.84-3.25,68.83,68.83,0,0,1-10.47-3.39,28.93,28.93,0,0,1-5.45-3,14.27,14.27,0,0,1-2.87-2.71,9.7,9.7,0,0,1-1.34-2.17,8.73,8.73,0,0,1-.52-1.39l-.2-.77a50.91,50.91,0,0,1-1.46-11.4,102.39,102.39,0,0,1,.29-10.84c.27-3.56.69-7.08,1.22-10.57s1.13-6.91,2-10.49Z" style="fill:#ffc3bd"></path><path d="M181.84,200.08C177,201.51,171,218.14,171,218.14l18.68,13.58s7-13.87,5-20.14C192.63,205.05,187.38,198.44,181.84,200.08Z" style="fill:#407BFF"></path><path d="M181.84,200.08C177,201.51,171,218.14,171,218.14l18.68,13.58s7-13.87,5-20.14C192.63,205.05,187.38,198.44,181.84,200.08Z" style="opacity:0.30000000000000004"></path><path d="M231.51,267.86l-4.7-2.14a5.74,5.74,0,0,0-3.74-.37L212,268l-1.48,3.73c1.59,4.37,9,3.79,9,3.79l5.9,2a2.5,2.5,0,0,0,2.7-.73l4.29-5A2.49,2.49,0,0,0,231.51,267.86Z" style="fill:#ffc3bd"></path><path d="M264.11,194.38l-6.11.53a3.51,3.51,0,0,0-3,2.47l-1.62,5.32s-4.79,5.67-2.17,9.51l3.89,1,8.72-7.59a5.38,5.38,0,0,0,1.73-3l1.08-5.44A2.32,2.32,0,0,0,264.11,194.38Z" style="fill:#ffc3bd"></path><path d="M265.16,190.35a14,14,0,0,1-28.06,0Z" style="fill:#407BFF"></path><ellipse cx="251.13" cy="190.36" rx="14.03" ry="0.59" style="fill:#263238"></ellipse><path d="M263.74,202.36a4.87,4.87,0,1,1,4.87-4.87A4.88,4.88,0,0,1,263.74,202.36Zm0-8.74a3.87,3.87,0,1,0,3.87,3.87A3.88,3.88,0,0,0,263.74,193.62Z" style="fill:#407BFF"></path><path d="M248.5,160.34a18,18,0,0,0,2.31,4.84,32.44,32.44,0,0,0,3.49,3.87,15.1,15.1,0,0,1,3.43,4.87,8.85,8.85,0,0,1,.23,5.93,19.09,19.09,0,0,0-2.32-4.84,33.23,33.23,0,0,0-3.49-3.87,15.23,15.23,0,0,1-3.42-4.87A8.79,8.79,0,0,1,248.5,160.34Z" style="fill:#e0e0e0"></path><path d="M244.3,166.2a18.28,18.28,0,0,0,2.32,4.84,32.5,32.5,0,0,0,3.49,3.88,14.93,14.93,0,0,1,3.42,4.86,8.82,8.82,0,0,1,.24,5.94,18.92,18.92,0,0,0-2.32-4.84A33.23,33.23,0,0,0,248,177a15.23,15.23,0,0,1-3.42-4.87A8.82,8.82,0,0,1,244.3,166.2Z" style="fill:#e0e0e0"></path><path d="M208.09,141.51c7.72,5.92,10.53,2.52,14.4,8.68-1.46-8.82-6.83-11.19-12-11.29S206.13,140,208.09,141.51Z" style="fill:#263238"></path></g></svg>